# xmcd
# 
# Track frame offsets:
#     150
#     24272
#     48394
#     72516
# 
# Disc length: 1110
# 
# Revision: 0
# Processed by: cddbd v1.5.2PL0 Copyright (c) Steve Scherf et al.
# Submitted via: BonkEnc v1.0.15
# 
DISCID=2e045404
DTITLE=サルサ・トルティア＆リトス・トルティア - ふたりDEトルティア～～しあわせでいきましょう～
DYEAR=0
DGENRE=
TTITLE0=ふたりDEトルティア～～しあわせでいきましょう～
TTITLE1=ふたりDEトルティア～～しあわせでいきましょう～insturmental
TTITLE2=ふたりDEトルティア～～しあわせでいきましょう～dialog cut
TTITLE3=ふたりDEトルティア～～しあわせでいきましょう～short
EXTD=
EXTT0=
EXTT1=
EXTT2=
EXTT3=
PLAYORDER=
